<svg width="56" height="56" viewBox="0 0 56 56" fill="none" xmlns="http://www.w3.org/2000/svg">
<path d="M28 55.7083C22.5198 55.7083 17.1627 54.0833 12.606 51.0386C8.04943 47.994 4.49799 43.6666 2.40081 38.6035C0.303631 33.5405 -0.245086 27.9693 0.824046 22.5944C1.89318 17.2195 4.53214 12.2823 8.40722 8.40725C12.2823 4.53217 17.2195 1.89321 22.5943 0.824077C27.9692 -0.245055 33.5405 0.303662 38.6035 2.40084C43.6665 4.49802 47.994 8.04946 51.0386 12.6061C54.0832 17.1627 55.7083 22.5198 55.7083 28C55.7006 35.3463 52.7788 42.3896 47.5842 47.5842C42.3895 52.7789 35.3463 55.7006 28 55.7083ZM28 3.20834C23.0966 3.20834 18.3034 4.66234 14.2265 7.38649C10.1495 10.1106 6.97188 13.9826 5.09546 18.5126C3.21904 23.0427 2.72808 28.0275 3.68467 32.8366C4.64126 37.6457 7.00244 42.0632 10.4696 45.5304C13.9368 48.9975 18.3542 51.3587 23.1634 52.3153C27.9725 53.2719 32.9572 52.7809 37.4873 50.9045C42.0174 49.0281 45.8893 45.8505 48.6135 41.7735C51.3376 37.6965 52.7916 32.9033 52.7916 28C52.7839 21.4272 50.1695 15.1258 45.5218 10.4782C40.8741 5.83051 34.5728 3.21605 28 3.20834V3.20834Z" fill="#95E1D3"/>
<path d="M28 43.1958C24.9945 43.1958 22.0566 42.3046 19.5576 40.6349C17.0587 38.9651 15.111 36.5919 13.9609 33.8152C12.8107 31.0385 12.5098 27.9831 13.0961 25.0354C13.6825 22.0877 15.1297 19.3801 17.2549 17.2549C19.3801 15.1297 22.0877 13.6825 25.0354 13.0962C27.9831 12.5098 31.0385 12.8107 33.8152 13.9609C36.5918 15.111 38.9651 17.0587 40.6348 19.5576C42.3046 22.0566 43.1958 24.9945 43.1958 28C43.1881 32.0278 41.5846 35.8885 38.7365 38.7366C35.8884 41.5847 32.0278 43.1881 28 43.1958V43.1958ZM28 15.7208C25.5714 15.7208 23.1973 16.441 21.178 17.7902C19.1587 19.1395 17.5849 21.0572 16.6555 23.301C15.7261 25.5447 15.483 28.0136 15.9568 30.3955C16.4305 32.7775 17.6 34.9654 19.3173 36.6827C21.0346 38.4 23.2225 39.5694 25.6044 40.0432C27.9864 40.517 30.4553 40.2739 32.699 39.3445C34.9427 38.4151 36.8605 36.8412 38.2097 34.8219C39.559 32.8026 40.2791 30.4286 40.2791 28C40.2714 24.7457 38.9753 21.6269 36.6742 19.3258C34.373 17.0247 31.2542 15.7285 28 15.7208V15.7208Z" fill="#95E1D3"/>
<path d="M54.25 29.4583H1.74996C1.36319 29.4583 0.992253 29.3047 0.718762 29.0312C0.445272 28.7577 0.291626 28.3868 0.291626 28C0.291626 27.6132 0.445272 27.2423 0.718762 26.9688C0.992253 26.6953 1.36319 26.5417 1.74996 26.5417H54.25C54.6367 26.5417 55.0077 26.6953 55.2812 26.9688C55.5546 27.2423 55.7083 27.6132 55.7083 28C55.7083 28.3868 55.5546 28.7577 55.2812 29.0312C55.0077 29.3047 54.6367 29.4583 54.25 29.4583Z" fill="#95E1D3"/>
<path d="M28 55.7083C27.6132 55.7083 27.2423 55.5547 26.9688 55.2812C26.6953 55.0077 26.5416 54.6368 26.5416 54.25V1.75001C26.5416 1.36323 26.6953 0.992298 26.9688 0.718808C27.2423 0.445317 27.6132 0.291672 28 0.291672C28.3867 0.291672 28.7577 0.445317 29.0312 0.718808C29.3046 0.992298 29.4583 1.36323 29.4583 1.75001V54.25C29.4583 54.6368 29.3046 55.0077 29.0312 55.2812C28.7577 55.5547 28.3867 55.7083 28 55.7083Z" fill="#95E1D3"/>
</svg>
